<svg width="42" height="42" viewBox="0 0 42 42" fill="none" xmlns="http://www.w3.org/2000/svg">
<circle cx="21" cy="21" r="20.25" fill="url(#paint0_linear_414_40)" stroke="#57E4FF" stroke-width="0.5"/>
<path d="M12.0088 23.2854V30.9417H15.5511V20.4283L15.2084 20.0566L12.0088 23.2854Z" fill="#6F3FF8"/>
<path d="M16.4932 21.3428V30.9142H20.0355V24.3996C19.6359 24.3137 19.2921 24.1429 18.9785 23.8282L16.4932 21.3428Z" fill="#6F3FF8"/>
<path d="M20.9796 24.3702V30.9125H24.5219V21.1982L21.8935 23.8266C21.6369 24.1134 21.3222 24.2854 20.9796 24.3702Z" fill="#6F3FF8"/>
<path d="M25.4648 30.9419H29.0083V16.7422L25.4648 20.2856V30.9419Z" fill="#6F3FF8"/>
<path d="M33.265 8.42899H26.093C25.4647 8.42899 24.9502 8.94351 24.9502 9.54282C24.9502 10.1712 25.4647 10.6857 26.093 10.6857H29.4356C29.6354 10.6857 29.8073 10.7995 29.8642 10.9714C29.9501 11.1433 29.8932 11.343 29.7782 11.4859L20.7794 20.4568C20.6075 20.6286 20.2939 20.6286 20.122 20.4568L16.0083 16.343C15.8085 16.1433 15.5228 16.0283 15.2081 16.0283C14.8933 16.0283 14.6076 16.1421 14.4078 16.343L7.60756 23.171C7.17899 23.5996 7.17899 24.3429 7.60756 24.7715C8.03613 25.2001 8.77945 25.2001 9.20802 24.7715L14.8932 19.0572C14.9791 18.9713 15.0929 18.9144 15.2358 18.9144C15.3496 18.9144 15.4925 18.9713 15.5784 19.0572L19.6921 23.1709C20.1207 23.5995 20.864 23.5995 21.2926 23.1709L31.4063 13.0572C31.5492 12.9144 31.7489 12.8853 31.9208 12.9713C32.0927 13.0572 32.2065 13.228 32.2065 13.3999V16.7424C32.2065 17.3708 32.721 17.8563 33.3204 17.8563C33.9487 17.8563 34.4632 17.3417 34.4632 16.7424L34.4643 9.57157C34.4074 8.94211 33.8929 8.42871 33.2646 8.42871L33.265 8.42899Z" fill="#6F3FF8"/>
<path d="M12.4885 34.8574H11.7519V32.7795H12.4946C12.7036 32.7795 12.8835 32.8211 13.0344 32.9043C13.1852 32.9868 13.3012 33.1055 13.3824 33.2604C13.4642 33.4153 13.5051 33.6007 13.5051 33.8164C13.5051 34.0329 13.4642 34.2189 13.3824 34.3745C13.3012 34.53 13.1845 34.6494 13.0323 34.7326C12.8808 34.8158 12.6995 34.8574 12.4885 34.8574ZM12.1912 34.481H12.4702C12.6001 34.481 12.7093 34.458 12.798 34.412C12.8872 34.3653 12.9542 34.2933 12.9988 34.1959C13.0442 34.0978 13.0668 33.9713 13.0668 33.8164C13.0668 33.6629 13.0442 33.5374 12.9988 33.44C12.9542 33.3426 12.8876 33.2709 12.799 33.2249C12.7104 33.1789 12.6011 33.1559 12.4712 33.1559H12.1912V34.481ZM14.2669 34.8868C14.1674 34.8868 14.0788 34.8696 14.001 34.8351C13.9232 34.7999 13.8617 34.7482 13.8164 34.6799C13.7717 34.6109 13.7494 34.525 13.7494 34.4222C13.7494 34.3356 13.7653 34.2629 13.7971 34.204C13.8289 34.1452 13.8722 34.0978 13.927 34.062C13.9817 34.0261 14.044 33.9991 14.1136 33.9808C14.184 33.9625 14.2577 33.9497 14.3348 33.9422C14.4255 33.9328 14.4985 33.924 14.554 33.9159C14.6095 33.9071 14.6497 33.8942 14.6747 33.8773C14.6998 33.8604 14.7123 33.8354 14.7123 33.8022V33.7961C14.7123 33.7319 14.692 33.6822 14.6514 33.647C14.6115 33.6118 14.5547 33.5942 14.4809 33.5942C14.4032 33.5942 14.3413 33.6115 14.2953 33.646C14.2493 33.6798 14.2188 33.7224 14.2039 33.7738L13.8042 33.7414C13.8245 33.6467 13.8644 33.5648 13.9239 33.4958C13.9834 33.4261 14.0602 33.3727 14.1542 33.3355C14.2489 33.2976 14.3585 33.2787 14.483 33.2787C14.5695 33.2787 14.6524 33.2888 14.7315 33.3091C14.8114 33.3294 14.882 33.3609 14.9436 33.4035C15.0058 33.4461 15.0549 33.5009 15.0907 33.5679C15.1266 33.6341 15.1445 33.7136 15.1445 33.8063V34.8574H14.7346V34.6413H14.7224C14.6974 34.69 14.6639 34.733 14.622 34.7702C14.58 34.8067 14.5296 34.8354 14.4708 34.8564C14.4119 34.8767 14.344 34.8868 14.2669 34.8868ZM14.3906 34.5886C14.4542 34.5886 14.5104 34.576 14.5591 34.551C14.6078 34.5253 14.646 34.4908 14.6737 34.4475C14.7014 34.4042 14.7153 34.3552 14.7153 34.3004V34.135C14.7018 34.1438 14.6832 34.1519 14.6595 34.1594C14.6365 34.1661 14.6105 34.1726 14.5814 34.1786C14.5523 34.1841 14.5232 34.1891 14.4941 34.1939C14.465 34.1979 14.4387 34.2016 14.415 34.205C14.3643 34.2125 14.32 34.2243 14.2821 34.2405C14.2442 34.2568 14.2148 34.2788 14.1938 34.3065C14.1728 34.3335 14.1624 34.3674 14.1624 34.4079C14.1624 34.4668 14.1837 34.5118 14.2263 34.5429C14.2696 34.5733 14.3243 34.5886 14.3906 34.5886ZM16.3088 33.299V33.6237H15.3702V33.299H16.3088ZM15.5833 32.9256H16.0155V34.3785C16.0155 34.4184 16.0216 34.4495 16.0338 34.4719C16.046 34.4935 16.0629 34.5087 16.0845 34.5175C16.1069 34.5263 16.1326 34.5307 16.1616 34.5307C16.1819 34.5307 16.2022 34.529 16.2225 34.5256C16.2428 34.5216 16.2584 34.5185 16.2692 34.5165L16.3372 34.8381C16.3155 34.8449 16.2851 34.8527 16.2459 34.8615C16.2066 34.871 16.1589 34.8767 16.1028 34.8787C15.9986 34.8828 15.9073 34.8689 15.8288 34.8371C15.7511 34.8053 15.6905 34.756 15.6472 34.689C15.6039 34.622 15.5826 34.5375 15.5833 34.4353V32.9256ZM17.0347 34.8868C16.9353 34.8868 16.8467 34.8696 16.7689 34.8351C16.6911 34.7999 16.6295 34.7482 16.5842 34.6799C16.5396 34.6109 16.5173 34.525 16.5173 34.4222C16.5173 34.3356 16.5332 34.2629 16.5649 34.204C16.5967 34.1452 16.64 34.0978 16.6948 34.062C16.7496 34.0261 16.8118 33.9991 16.8815 33.9808C16.9519 33.9625 17.0256 33.9497 17.1027 33.9422C17.1933 33.9328 17.2664 33.924 17.3218 33.9159C17.3773 33.9071 17.4176 33.8942 17.4426 33.8773C17.4676 33.8604 17.4801 33.8354 17.4801 33.8022V33.7961C17.4801 33.7319 17.4598 33.6822 17.4192 33.647C17.3793 33.6118 17.3225 33.5942 17.2488 33.5942C17.171 33.5942 17.1091 33.6115 17.0631 33.646C17.0171 33.6798 16.9867 33.7224 16.9718 33.7738L16.5721 33.7414C16.5923 33.6467 16.6323 33.5648 16.6918 33.4958C16.7513 33.4261 16.8281 33.3727 16.9221 33.3355C17.0168 33.2976 17.1264 33.2787 17.2508 33.2787C17.3374 33.2787 17.4203 33.2888 17.4994 33.3091C17.5792 33.3294 17.6499 33.3609 17.7115 33.4035C17.7737 33.4461 17.8227 33.5009 17.8586 33.5679C17.8944 33.6341 17.9124 33.7136 17.9124 33.8063V34.8574H17.5024V34.6413H17.4903C17.4652 34.69 17.4318 34.733 17.3898 34.7702C17.3479 34.8067 17.2975 34.8354 17.2386 34.8564C17.1798 34.8767 17.1118 34.8868 17.0347 34.8868ZM17.1585 34.5886C17.2221 34.5886 17.2782 34.576 17.3269 34.551C17.3756 34.5253 17.4138 34.4908 17.4416 34.4475C17.4693 34.4042 17.4832 34.3552 17.4832 34.3004V34.135C17.4696 34.1438 17.451 34.1519 17.4274 34.1594C17.4044 34.1661 17.3783 34.1726 17.3492 34.1786C17.3202 34.1841 17.2911 34.1891 17.262 34.1939C17.2329 34.1979 17.2065 34.2016 17.1828 34.205C17.1321 34.2125 17.0878 34.2243 17.0499 34.2405C17.0121 34.2568 16.9826 34.2788 16.9617 34.3065C16.9407 34.3335 16.9302 34.3674 16.9302 34.4079C16.9302 34.4668 16.9515 34.5118 16.9941 34.5429C17.0374 34.5733 17.0922 34.5886 17.1585 34.5886ZM18.9171 34.8574V32.7795H19.7369C19.8938 32.7795 20.0277 32.8076 20.1387 32.8637C20.2503 32.9192 20.3352 32.998 20.3933 33.1001C20.4522 33.2016 20.4816 33.321 20.4816 33.4583C20.4816 33.5963 20.4518 33.715 20.3923 33.8144C20.3328 33.9132 20.2465 33.9889 20.1336 34.0417C20.0213 34.0944 19.8853 34.1208 19.7257 34.1208H19.1768V33.7677H19.6547C19.7386 33.7677 19.8082 33.7562 19.8637 33.7332C19.9192 33.7102 19.9604 33.6757 19.9875 33.6297C20.0152 33.5837 20.0291 33.5266 20.0291 33.4583C20.0291 33.3893 20.0152 33.3311 19.9875 33.2838C19.9604 33.2364 19.9188 33.2006 19.8627 33.1762C19.8072 33.1512 19.7372 33.1387 19.6527 33.1387H19.3564V34.8574H18.9171ZM20.0392 33.9118L20.5557 34.8574H20.0707L19.5654 33.9118H20.0392ZM21.4691 34.8879C21.3088 34.8879 21.1708 34.8554 21.0551 34.7905C20.9401 34.7248 20.8515 34.6322 20.7893 34.5125C20.727 34.3921 20.6959 34.2497 20.6959 34.0853C20.6959 33.925 20.727 33.7843 20.7893 33.6632C20.8515 33.5421 20.9391 33.4478 21.0521 33.3801C21.1657 33.3125 21.299 33.2787 21.4518 33.2787C21.5546 33.2787 21.6503 33.2953 21.739 33.3284C21.8282 33.3609 21.906 33.4099 21.9723 33.4755C22.0393 33.5411 22.0914 33.6237 22.1286 33.7231C22.1658 33.8218 22.1844 33.9375 22.1844 34.0701V34.1888H20.8684V33.9209H21.7775C21.7775 33.8587 21.764 33.8036 21.7369 33.7556C21.7099 33.7075 21.6723 33.67 21.6243 33.6429C21.577 33.6152 21.5218 33.6013 21.4589 33.6013C21.3933 33.6013 21.3351 33.6166 21.2844 33.647C21.2344 33.6768 21.1951 33.717 21.1667 33.7677C21.1383 33.8178 21.1238 33.8736 21.1231 33.9351V34.1898C21.1231 34.2669 21.1373 34.3335 21.1657 34.3897C21.1948 34.4458 21.2357 34.4891 21.2885 34.5196C21.3412 34.55 21.4038 34.5652 21.4762 34.5652C21.5242 34.5652 21.5682 34.5584 21.6081 34.5449C21.648 34.5314 21.6821 34.5111 21.7105 34.484C21.739 34.457 21.7606 34.4238 21.7755 34.3846L22.1752 34.411C22.1549 34.507 22.1133 34.5909 22.0504 34.6626C21.9882 34.7336 21.9077 34.7891 21.809 34.829C21.7109 34.8682 21.5976 34.8879 21.4691 34.8879ZM22.8987 32.7795V34.8574H22.4664V32.7795H22.8987ZM23.6893 34.8868C23.5899 34.8868 23.5012 34.8696 23.4235 34.8351C23.3457 34.7999 23.2841 34.7482 23.2388 34.6799C23.1942 34.6109 23.1718 34.525 23.1718 34.4222C23.1718 34.3356 23.1877 34.2629 23.2195 34.204C23.2513 34.1452 23.2946 34.0978 23.3494 34.062C23.4042 34.0261 23.4664 33.9991 23.5361 33.9808C23.6064 33.9625 23.6802 33.9497 23.7573 33.9422C23.8479 33.9328 23.921 33.924 23.9764 33.9159C24.0319 33.9071 24.0721 33.8942 24.0972 33.8773C24.1222 33.8604 24.1347 33.8354 24.1347 33.8022V33.7961C24.1347 33.7319 24.1144 33.6822 24.0738 33.647C24.0339 33.6118 23.9771 33.5942 23.9034 33.5942C23.8256 33.5942 23.7637 33.6115 23.7177 33.646C23.6717 33.6798 23.6413 33.7224 23.6264 33.7738L23.2266 33.7414C23.2469 33.6467 23.2868 33.5648 23.3464 33.4958C23.4059 33.4261 23.4826 33.3727 23.5767 33.3355C23.6714 33.2976 23.7809 33.2787 23.9054 33.2787C23.992 33.2787 24.0748 33.2888 24.154 33.3091C24.2338 33.3294 24.3045 33.3609 24.366 33.4035C24.4283 33.4461 24.4773 33.5009 24.5132 33.5679C24.549 33.6341 24.5669 33.7136 24.5669 33.8063V34.8574H24.157V34.6413H24.1448C24.1198 34.69 24.0863 34.733 24.0444 34.7702C24.0025 34.8067 23.9521 34.8354 23.8932 34.8564C23.8344 34.8767 23.7664 34.8868 23.6893 34.8868ZM23.8131 34.5886C23.8767 34.5886 23.9328 34.576 23.9815 34.551C24.0302 34.5253 24.0684 34.4908 24.0961 34.4475C24.1239 34.4042 24.1377 34.3552 24.1377 34.3004V34.135C24.1242 34.1438 24.1056 34.1519 24.0819 34.1594C24.0589 34.1661 24.0329 34.1726 24.0038 34.1786C23.9747 34.1841 23.9456 34.1891 23.9166 34.1939C23.8875 34.1979 23.8611 34.2016 23.8374 34.205C23.7867 34.2125 23.7424 34.2243 23.7045 34.2405C23.6666 34.2568 23.6372 34.2788 23.6162 34.3065C23.5953 34.3335 23.5848 34.3674 23.5848 34.4079C23.5848 34.4668 23.6061 34.5118 23.6487 34.5429C23.692 34.5733 23.7468 34.5886 23.8131 34.5886ZM25.7312 33.299V33.6237H24.7927V33.299H25.7312ZM25.0057 32.9256H25.438V34.3785C25.438 34.4184 25.4441 34.4495 25.4562 34.4719C25.4684 34.4935 25.4853 34.5087 25.507 34.5175C25.5293 34.5263 25.555 34.5307 25.5841 34.5307C25.6044 34.5307 25.6247 34.529 25.645 34.5256C25.6652 34.5216 25.6808 34.5185 25.6916 34.5165L25.7596 34.8381C25.738 34.8449 25.7075 34.8527 25.6683 34.8615C25.6291 34.871 25.5814 34.8767 25.5252 34.8787C25.4211 34.8828 25.3297 34.8689 25.2513 34.8371C25.1735 34.8053 25.113 34.756 25.0697 34.689C25.0264 34.622 25.0051 34.5375 25.0057 34.4353V32.9256ZM26.7062 34.8879C26.5459 34.8879 26.4079 34.8554 26.2923 34.7905C26.1773 34.7248 26.0887 34.6322 26.0264 34.5125C25.9642 34.3921 25.9331 34.2497 25.9331 34.0853C25.9331 33.925 25.9642 33.7843 26.0264 33.6632C26.0887 33.5421 26.1763 33.4478 26.2892 33.3801C26.4029 33.3125 26.5361 33.2787 26.689 33.2787C26.7918 33.2787 26.8875 33.2953 26.9761 33.3284C27.0654 33.3609 27.1432 33.4099 27.2095 33.4755C27.2764 33.5411 27.3285 33.6237 27.3657 33.7231C27.4029 33.8218 27.4215 33.9375 27.4215 34.0701V34.1888H26.1056V33.9209H27.0147C27.0147 33.8587 27.0011 33.8036 26.9741 33.7556C26.947 33.7075 26.9095 33.67 26.8615 33.6429C26.8141 33.6152 26.759 33.6013 26.6961 33.6013C26.6305 33.6013 26.5723 33.6166 26.5216 33.647C26.4715 33.6768 26.4323 33.717 26.4039 33.7677C26.3755 33.8178 26.3609 33.8736 26.3603 33.9351V34.1898C26.3603 34.2669 26.3745 34.3335 26.4029 34.3897C26.4319 34.4458 26.4729 34.4891 26.5256 34.5196C26.5784 34.55 26.641 34.5652 26.7133 34.5652C26.7614 34.5652 26.8053 34.5584 26.8452 34.5449C26.8851 34.5314 26.9193 34.5111 26.9477 34.484C26.9761 34.457 26.9978 34.4238 27.0126 34.3846L27.4124 34.411C27.3921 34.507 27.3505 34.5909 27.2876 34.6626C27.2254 34.7336 27.1449 34.7891 27.0461 34.829C26.948 34.8682 26.8348 34.8879 26.7062 34.8879ZM28.2779 34.8828C28.1595 34.8828 28.0523 34.8523 27.9562 34.7915C27.8609 34.7299 27.7851 34.6396 27.729 34.5206C27.6735 34.4008 27.6458 34.2541 27.6458 34.0802C27.6458 33.9017 27.6745 33.7532 27.732 33.6348C27.7895 33.5158 27.8659 33.4268 27.9613 33.368C28.0574 33.3084 28.1625 33.2787 28.2768 33.2787C28.3641 33.2787 28.4368 33.2936 28.495 33.3233C28.5538 33.3524 28.6012 33.3889 28.637 33.4329C28.6736 33.4762 28.7013 33.5188 28.7202 33.5607H28.7334V32.7795H29.1646V34.8574H28.7385V34.6078H28.7202C28.6999 34.6511 28.6712 34.6941 28.634 34.7367C28.5975 34.7786 28.5498 34.8135 28.4909 34.8412C28.4328 34.8689 28.3617 34.8828 28.2779 34.8828ZM28.4148 34.5388C28.4845 34.5388 28.5434 34.5199 28.5914 34.482C28.6401 34.4435 28.6773 34.3897 28.703 34.3207C28.7294 34.2517 28.7426 34.1709 28.7426 34.0782C28.7426 33.9855 28.7297 33.905 28.704 33.8367C28.6783 33.7684 28.6411 33.7156 28.5924 33.6784C28.5437 33.6412 28.4845 33.6226 28.4148 33.6226C28.3438 33.6226 28.284 33.6419 28.2353 33.6805C28.1865 33.719 28.1497 33.7725 28.1247 33.8408C28.0996 33.9091 28.0871 33.9882 28.0871 34.0782C28.0871 34.1688 28.0996 34.249 28.1247 34.3187C28.1504 34.3877 28.1872 34.4418 28.2353 34.481C28.284 34.5196 28.3438 34.5388 28.4148 34.5388Z" fill="#6F3FF8"/>
<defs>
<linearGradient id="paint0_linear_414_40" x1="9" y1="4.42857" x2="31.8571" y2="39.5714" gradientUnits="userSpaceOnUse">
<stop stop-color="white"/>
<stop offset="1" stop-color="#CFE8FE" stop-opacity="0.6"/>
</linearGradient>
</defs>
</svg>
